<svg width="3364" height="441" viewBox="0 0 3364 441" fill="none" xmlns="http://www.w3.org/2000/svg">
<rect width="3364" height="441" fill="white"/>
<path d="M162.421 137.053H191.892C218.812 137.053 230.431 145.554 230.431 162.84C230.431 177.858 218.529 188.06 195.009 188.06H162.705V137.053H162.421ZM127 306.226H198.976C236.665 306.226 274.637 292.624 274.637 249.268C274.637 223.481 256.501 203.929 231.564 201.095V200.528C252.25 194.294 266.135 179.275 266.135 156.889C266.135 120.617 235.248 106.732 204.927 106.732H127V306.226ZM162.421 218.381H196.426C225.33 218.381 238.648 225.748 238.648 246.718C238.648 273.071 213.145 276.189 195.009 276.189H162.421V218.381Z" fill="black"/>
<path d="M297.595 101.914H331.316V306.225H297.595V101.914Z" fill="black"/>
<path d="M387.983 238.499C387.983 217.246 403.002 197.977 427.655 197.977C452.592 197.977 467.327 217.529 467.327 238.499C467.327 259.752 452.308 279.021 427.655 279.021C403.002 279.304 387.983 259.752 387.983 238.499ZM354.262 238.499C354.262 281.004 386.849 309.625 427.938 309.625C468.744 309.625 501.615 281.004 501.615 238.499C501.615 195.993 469.027 167.372 427.938 167.372C386.849 167.656 354.262 195.993 354.262 238.499Z" fill="black"/>
<path d="M550.641 238.499C550.641 217.246 565.66 197.977 590.313 197.977C615.25 197.977 629.985 217.529 629.985 238.499C629.985 259.752 614.967 279.021 590.313 279.021C565.377 279.304 550.641 259.752 550.641 238.499ZM516.638 238.499C516.638 281.004 549.224 309.625 590.313 309.625C631.119 309.625 663.99 281.004 663.99 238.499C663.99 195.993 631.402 167.372 590.313 167.372C549.508 167.656 516.638 195.993 516.638 238.499Z" fill="black"/>
<path d="M684.666 171.053H716.687V192.306H717.254C723.205 179.555 736.24 167.653 758.626 167.653C779.596 167.653 793.764 175.871 800.849 192.873C810.767 175.587 825.218 167.653 845.338 167.653C881.326 167.653 894.078 193.44 894.078 225.744V306.505H860.357V229.711C860.357 212.709 855.256 198.257 835.137 198.257C813.884 198.257 805.949 215.826 805.949 233.112V306.505H772.228V225.744C772.228 209.025 765.427 197.974 748.991 197.974C726.605 197.974 718.104 214.409 718.104 232.262V306.222H684.383V171.053H684.666Z" fill="black"/>
<path d="M1034.08 238.5C1034.08 259.752 1019.06 279.022 994.398 279.022C969.465 279.022 954.729 259.469 954.729 238.5C954.729 217.247 969.748 197.977 994.398 197.977C1019.06 197.977 1034.08 217.53 1034.08 238.5ZM921.858 306.225H953.879V285.823H954.446C964.364 302.258 982.218 309.626 1000.92 309.626C1042.58 309.626 1067.8 278.738 1067.8 238.5C1067.8 198.544 1040.88 167.373 1002.34 167.373C976.832 167.373 963.514 179.275 956.43 188.059H955.58V101.914H921.858V306.225Z" fill="black"/>
<path d="M1117.1 225.18C1119.65 205.627 1132.12 193.159 1151.96 193.159C1173.21 193.159 1185.96 205.627 1186.24 225.18H1117.1ZM1220.25 250.4V241.049C1220.25 194.009 1194.46 167.372 1156.77 167.372C1115.97 167.372 1083.1 195.993 1083.1 238.499C1083.1 281.004 1115.68 309.625 1156.77 309.625C1178.31 309.625 1198.15 301.974 1214.01 282.421L1189.64 264.002C1181.14 274.487 1170.09 282.421 1153.37 282.421C1134.39 282.421 1119.37 270.236 1117.1 250.4H1220.25Z" fill="black"/>
<path d="M1242.36 171.053H1276.08V192.59H1276.65C1284.01 177.004 1299.03 167.653 1316.6 167.653C1320.85 167.653 1324.82 168.503 1328.79 169.637V202.224C1323.12 200.808 1317.74 199.674 1312.35 199.674C1280.61 199.674 1276.08 226.594 1276.08 233.679V306.222H1242.36V171.053Z" fill="black"/>
<path d="M1404.72 197.974C1429.38 197.974 1444.68 214.409 1444.68 237.646C1444.68 260.316 1429.38 277.318 1404.44 277.318C1381.49 277.318 1364.77 259.465 1364.77 238.213C1364.77 214.409 1380.92 197.974 1404.72 197.974ZM1444.68 171.053V191.456H1444.11C1434.2 175.021 1416.34 167.653 1397.64 167.653C1355.98 167.653 1330.76 198.824 1330.76 238.779C1330.76 277.035 1357.68 308.205 1398.21 308.205C1415.21 308.205 1432.49 301.688 1442.41 288.369H1442.98V298.287C1442.98 325.208 1432.78 343.627 1400.19 343.627C1381.2 343.627 1367.32 336.543 1353.72 324.074L1333.31 351.845C1352.58 368.847 1375.25 374.231 1400.47 374.231C1453.18 374.231 1476.98 343.344 1476.98 294.32V171.053H1444.68Z" fill="black"/>
<path d="M1582.84 107.76H1660.12C1667.59 107.76 1674.96 108.693 1682.24 110.56C1689.52 112.24 1695.96 115.133 1701.56 119.24C1707.35 123.16 1712.01 128.293 1715.56 134.64C1719.11 140.987 1720.88 148.64 1720.88 157.6C1720.88 168.8 1717.71 178.04 1711.36 185.32C1705.01 192.6 1696.71 197.827 1686.44 201V201.56C1698.95 203.24 1709.21 208.093 1717.24 216.12C1725.27 224.147 1729.28 234.88 1729.28 248.32C1729.28 259.147 1727.13 268.293 1722.84 275.76C1718.55 283.04 1712.85 288.92 1705.76 293.4C1698.85 297.88 1690.83 301.147 1681.68 303.2C1672.72 305.067 1663.57 306 1654.24 306H1582.84V107.76ZM1618.12 188.4H1649.48C1661.24 188.4 1670.2 186.067 1676.36 181.4C1682.52 176.733 1685.6 170.107 1685.6 161.52C1685.6 152.56 1682.43 146.213 1676.08 142.48C1669.73 138.747 1659.84 136.88 1646.4 136.88H1618.12V188.4ZM1618.12 276.32H1649.76C1654.24 276.32 1659.09 276.04 1664.32 275.48C1669.55 274.733 1674.31 273.333 1678.6 271.28C1683.08 269.227 1686.72 266.24 1689.52 262.32C1692.51 258.4 1694 253.173 1694 246.64C1694 236.187 1690.45 228.907 1683.36 224.8C1676.27 220.693 1665.53 218.64 1651.16 218.64H1618.12V276.32ZM1873.89 306H1841.97V284.44H1841.41C1838.42 291.16 1833.2 297.133 1825.73 302.36C1818.45 307.4 1809.77 309.92 1799.69 309.92C1790.92 309.92 1783.36 308.427 1777.01 305.44C1770.85 302.267 1765.72 298.16 1761.61 293.12C1757.69 288.08 1754.8 282.293 1752.93 275.76C1751.06 269.227 1750.13 262.507 1750.13 255.6V171.6H1783.73V246.08C1783.73 250 1784.01 254.107 1784.57 258.4C1785.13 262.693 1786.34 266.613 1788.21 270.16C1790.08 273.52 1792.6 276.32 1795.77 278.56C1799.13 280.8 1803.52 281.92 1808.93 281.92C1814.16 281.92 1818.73 280.893 1822.65 278.84C1826.76 276.6 1830.02 273.8 1832.45 270.44C1835.06 267.08 1837.02 263.253 1838.33 258.96C1839.64 254.48 1840.29 250 1840.29 245.52V171.6H1873.89V306ZM1976.66 207.44C1973.67 203.52 1969.56 200.16 1964.34 197.36C1959.11 194.373 1953.42 192.88 1947.26 192.88C1941.84 192.88 1936.9 194 1932.42 196.24C1927.94 198.48 1925.7 202.213 1925.7 207.44C1925.7 212.667 1928.12 216.4 1932.98 218.64C1938.02 220.693 1945.3 222.84 1954.82 225.08C1959.86 226.2 1964.9 227.693 1969.94 229.56C1975.16 231.427 1979.83 233.947 1983.94 237.12C1988.23 240.107 1991.68 243.933 1994.3 248.6C1996.91 253.08 1998.22 258.587 1998.22 265.12C1998.22 273.333 1996.63 280.333 1993.46 286.12C1990.47 291.72 1986.36 296.293 1981.14 299.84C1976.1 303.387 1970.12 305.907 1963.22 307.4C1956.5 309.08 1949.5 309.92 1942.22 309.92C1931.76 309.92 1921.59 308.053 1911.7 304.32C1901.8 300.4 1893.59 294.893 1887.06 287.8L1909.18 267.08C1912.91 271.933 1917.76 275.947 1923.74 279.12C1929.71 282.293 1936.34 283.88 1943.62 283.88C1946.04 283.88 1948.47 283.6 1950.9 283.04C1953.51 282.48 1955.84 281.64 1957.9 280.52C1960.14 279.213 1961.91 277.533 1963.22 275.48C1964.52 273.427 1965.18 270.907 1965.18 267.92C1965.18 262.32 1962.56 258.307 1957.34 255.88C1952.3 253.453 1944.64 251.027 1934.38 248.6C1929.34 247.48 1924.39 246.08 1919.54 244.4C1914.87 242.533 1910.67 240.2 1906.94 237.4C1903.2 234.413 1900.22 230.773 1897.98 226.48C1895.74 222.187 1894.62 216.867 1894.62 210.52C1894.62 203.053 1896.11 196.613 1899.1 191.2C1902.27 185.787 1906.38 181.4 1911.42 178.04C1916.46 174.493 1922.15 171.88 1928.5 170.2C1934.84 168.52 1941.38 167.68 1948.1 167.68C1957.8 167.68 1967.23 169.36 1976.38 172.72C1985.71 176.08 1993.08 181.213 1998.5 188.12L1976.66 207.44ZM2016.79 171.6H2050.39V306H2016.79V171.6ZM2012.03 125.96C2012.03 120.547 2013.99 115.88 2017.91 111.96C2022.02 107.853 2027.15 105.8 2033.31 105.8C2039.47 105.8 2044.61 107.76 2048.71 111.68C2053.01 115.413 2055.15 120.173 2055.15 125.96C2055.15 131.747 2053.01 136.6 2048.71 140.52C2044.61 144.253 2039.47 146.12 2033.31 146.12C2027.15 146.12 2022.02 144.16 2017.91 140.24C2013.99 136.133 2012.03 131.373 2012.03 125.96ZM2079.95 171.6H2111.87V193.16H2112.43C2115.42 186.44 2120.55 180.56 2127.83 175.52C2135.3 170.293 2144.07 167.68 2154.15 167.68C2162.93 167.68 2170.39 169.267 2176.55 172.44C2182.9 175.427 2188.03 179.44 2191.95 184.48C2196.06 189.52 2199.05 195.307 2200.91 201.84C2202.78 208.373 2203.71 215.093 2203.71 222V306H2170.11V231.52C2170.11 227.6 2169.83 223.493 2169.27 219.2C2168.71 214.907 2167.5 211.08 2165.63 207.72C2163.77 204.173 2161.15 201.28 2157.79 199.04C2154.62 196.8 2150.33 195.68 2144.91 195.68C2139.5 195.68 2134.83 196.8 2130.91 199.04C2126.99 201.093 2123.73 203.8 2121.11 207.16C2118.69 210.52 2116.82 214.44 2115.51 218.92C2114.21 223.213 2113.55 227.6 2113.55 232.08V306H2079.95V171.6ZM2326.36 225.36C2326.36 221.067 2325.71 216.96 2324.4 213.04C2323.28 209.12 2321.42 205.667 2318.8 202.68C2316.19 199.693 2312.83 197.36 2308.72 195.68C2304.8 193.813 2300.14 192.88 2294.72 192.88C2284.64 192.88 2276.06 195.96 2268.96 202.12C2262.06 208.093 2258.23 215.84 2257.48 225.36H2326.36ZM2359.96 240.48C2359.96 241.973 2359.96 243.467 2359.96 244.96C2359.96 246.453 2359.87 247.947 2359.68 249.44H2257.48C2257.86 254.293 2259.07 258.773 2261.12 262.88C2263.36 266.8 2266.26 270.253 2269.8 273.24C2273.35 276.04 2277.36 278.28 2281.84 279.96C2286.32 281.64 2290.99 282.48 2295.84 282.48C2304.24 282.48 2311.34 280.987 2317.12 278C2322.91 274.827 2327.67 270.533 2331.4 265.12L2353.8 283.04C2340.55 300.96 2321.32 309.92 2296.12 309.92C2285.67 309.92 2276.06 308.333 2267.28 305.16C2258.51 301.8 2250.86 297.133 2244.32 291.16C2237.98 285.187 2232.94 277.907 2229.2 269.32C2225.66 260.547 2223.88 250.653 2223.88 239.64C2223.88 228.813 2225.66 219.013 2229.2 210.24C2232.94 201.28 2237.98 193.72 2244.32 187.56C2250.67 181.213 2258.14 176.36 2266.72 173C2275.5 169.453 2284.92 167.68 2295 167.68C2304.34 167.68 2312.92 169.267 2320.76 172.44C2328.79 175.427 2335.7 180 2341.48 186.16C2347.27 192.133 2351.75 199.693 2354.92 208.84C2358.28 217.8 2359.96 228.347 2359.96 240.48ZM2454.94 207.44C2451.96 203.52 2447.85 200.16 2442.62 197.36C2437.4 194.373 2431.7 192.88 2425.54 192.88C2420.13 192.88 2415.18 194 2410.7 196.24C2406.22 198.48 2403.98 202.213 2403.98 207.44C2403.98 212.667 2406.41 216.4 2411.26 218.64C2416.3 220.693 2423.58 222.84 2433.1 225.08C2438.14 226.2 2443.18 227.693 2448.22 229.56C2453.45 231.427 2458.12 233.947 2462.22 237.12C2466.52 240.107 2469.97 243.933 2472.58 248.6C2475.2 253.08 2476.5 258.587 2476.5 265.12C2476.5 273.333 2474.92 280.333 2471.74 286.12C2468.76 291.72 2464.65 296.293 2459.42 299.84C2454.38 303.387 2448.41 305.907 2441.5 307.4C2434.78 309.08 2427.78 309.92 2420.5 309.92C2410.05 309.92 2399.88 308.053 2389.98 304.32C2380.09 300.4 2371.88 294.893 2365.34 287.8L2387.46 267.08C2391.2 271.933 2396.05 275.947 2402.02 279.12C2408 282.293 2414.62 283.88 2421.9 283.88C2424.33 283.88 2426.76 283.6 2429.18 283.04C2431.8 282.48 2434.13 281.64 2436.18 280.52C2438.42 279.213 2440.2 277.533 2441.5 275.48C2442.81 273.427 2443.46 270.907 2443.46 267.92C2443.46 262.32 2440.85 258.307 2435.62 255.88C2430.58 253.453 2422.93 251.027 2412.66 248.6C2407.62 247.48 2402.68 246.08 2397.82 244.4C2393.16 242.533 2388.96 240.2 2385.22 237.4C2381.49 234.413 2378.5 230.773 2376.26 226.48C2374.02 222.187 2372.9 216.867 2372.9 210.52C2372.9 203.053 2374.4 196.613 2377.38 191.2C2380.56 185.787 2384.66 181.4 2389.7 178.04C2394.74 174.493 2400.44 171.88 2406.78 170.2C2413.13 168.52 2419.66 167.68 2426.38 167.68C2436.09 167.68 2445.52 169.36 2454.66 172.72C2464 176.08 2471.37 181.213 2476.78 188.12L2454.94 207.44ZM2568.16 207.44C2565.17 203.52 2561.06 200.16 2555.84 197.36C2550.61 194.373 2544.92 192.88 2538.76 192.88C2533.34 192.88 2528.4 194 2523.92 196.24C2519.44 198.48 2517.2 202.213 2517.2 207.44C2517.2 212.667 2519.62 216.4 2524.48 218.64C2529.52 220.693 2536.8 222.84 2546.32 225.08C2551.36 226.2 2556.4 227.693 2561.44 229.56C2566.66 231.427 2571.33 233.947 2575.44 237.12C2579.73 240.107 2583.18 243.933 2585.8 248.6C2588.41 253.08 2589.72 258.587 2589.72 265.12C2589.72 273.333 2588.13 280.333 2584.96 286.12C2581.97 291.72 2577.86 296.293 2572.64 299.84C2567.6 303.387 2561.62 305.907 2554.72 307.4C2548 309.08 2541 309.92 2533.72 309.92C2523.26 309.92 2513.09 308.053 2503.2 304.32C2493.3 300.4 2485.09 294.893 2478.56 287.8L2500.68 267.08C2504.41 271.933 2509.26 275.947 2515.24 279.12C2521.21 282.293 2527.84 283.88 2535.12 283.88C2537.54 283.88 2539.97 283.6 2542.4 283.04C2545.01 282.48 2547.34 281.64 2549.4 280.52C2551.64 279.213 2553.41 277.533 2554.72 275.48C2556.02 273.427 2556.68 270.907 2556.68 267.92C2556.68 262.32 2554.06 258.307 2548.84 255.88C2543.8 253.453 2536.14 251.027 2525.88 248.6C2520.84 247.48 2515.89 246.08 2511.04 244.4C2506.37 242.533 2502.17 240.2 2498.44 237.4C2494.7 234.413 2491.72 230.773 2489.48 226.48C2487.24 222.187 2486.12 216.867 2486.12 210.52C2486.12 203.053 2487.61 196.613 2490.6 191.2C2493.77 185.787 2497.88 181.4 2502.92 178.04C2507.96 174.493 2513.65 171.88 2520 170.2C2526.34 168.52 2532.88 167.68 2539.6 167.68C2549.3 167.68 2558.73 169.36 2567.88 172.72C2577.21 176.08 2584.58 181.213 2590 188.12L2568.16 207.44ZM2588.69 171.6H2625.09L2653.09 267.92H2653.65L2682.49 171.6H2718.33L2747.45 267.92H2748.01L2776.57 171.6H2811.57L2765.09 306H2730.93L2700.41 211.92H2699.85L2669.61 306H2635.45L2588.69 171.6ZM2916.21 225.36C2916.21 221.067 2915.56 216.96 2914.25 213.04C2913.13 209.12 2911.26 205.667 2908.65 202.68C2906.04 199.693 2902.68 197.36 2898.57 195.68C2894.65 193.813 2889.98 192.88 2884.57 192.88C2874.49 192.88 2865.9 195.96 2858.81 202.12C2851.9 208.093 2848.08 215.84 2847.33 225.36H2916.21ZM2949.81 240.48C2949.81 241.973 2949.81 243.467 2949.81 244.96C2949.81 246.453 2949.72 247.947 2949.53 249.44H2847.33C2847.7 254.293 2848.92 258.773 2850.97 262.88C2853.21 266.8 2856.1 270.253 2859.65 273.24C2863.2 276.04 2867.21 278.28 2871.69 279.96C2876.17 281.64 2880.84 282.48 2885.69 282.48C2894.09 282.48 2901.18 280.987 2906.97 278C2912.76 274.827 2917.52 270.533 2921.25 265.12L2943.65 283.04C2930.4 300.96 2911.17 309.92 2885.97 309.92C2875.52 309.92 2865.9 308.333 2857.13 305.16C2848.36 301.8 2840.7 297.133 2834.17 291.16C2827.82 285.187 2822.78 277.907 2819.05 269.32C2815.5 260.547 2813.73 250.653 2813.73 239.64C2813.73 228.813 2815.5 219.013 2819.05 210.24C2822.78 201.28 2827.82 193.72 2834.17 187.56C2840.52 181.213 2847.98 176.36 2856.57 173C2865.34 169.453 2874.77 167.68 2884.85 167.68C2894.18 167.68 2902.77 169.267 2910.61 172.44C2918.64 175.427 2925.54 180 2931.33 186.16C2937.12 192.133 2941.6 199.693 2944.77 208.84C2948.13 217.8 2949.81 228.347 2949.81 240.48ZM3065.79 225.36C3065.79 221.067 3065.14 216.96 3063.83 213.04C3062.71 209.12 3060.85 205.667 3058.23 202.68C3055.62 199.693 3052.26 197.36 3048.15 195.68C3044.23 193.813 3039.57 192.88 3034.15 192.88C3024.07 192.88 3015.49 195.96 3008.39 202.12C3001.49 208.093 2997.66 215.84 2996.91 225.36H3065.79ZM3099.39 240.48C3099.39 241.973 3099.39 243.467 3099.39 244.96C3099.39 246.453 3099.3 247.947 3099.11 249.44H2996.91C2997.29 254.293 2998.5 258.773 3000.55 262.88C3002.79 266.8 3005.69 270.253 3009.23 273.24C3012.78 276.04 3016.79 278.28 3021.27 279.96C3025.75 281.64 3030.42 282.48 3035.27 282.48C3043.67 282.48 3050.77 280.987 3056.55 278C3062.34 274.827 3067.1 270.533 3070.83 265.12L3093.23 283.04C3079.98 300.96 3060.75 309.92 3035.55 309.92C3025.1 309.92 3015.49 308.333 3006.71 305.16C2997.94 301.8 2990.29 297.133 2983.75 291.16C2977.41 285.187 2972.37 277.907 2968.63 269.32C2965.09 260.547 2963.31 250.653 2963.31 239.64C2963.31 228.813 2965.09 219.013 2968.63 210.24C2972.37 201.28 2977.41 193.72 2983.75 187.56C2990.1 181.213 2997.57 176.36 3006.15 173C3014.93 169.453 3024.35 167.68 3034.43 167.68C3043.77 167.68 3052.35 169.267 3060.19 172.44C3068.22 175.427 3075.13 180 3080.91 186.16C3086.7 192.133 3091.18 199.693 3094.35 208.84C3097.71 217.8 3099.39 228.347 3099.39 240.48ZM3121.29 94.32H3154.89V228.16H3155.73L3206.69 171.6H3249.81L3191.57 232.36L3253.45 306H3208.93L3155.73 237.12H3154.89V306H3121.29V94.32Z" fill="black"/>
</svg>
