<svg width="2540" height="441" viewBox="0 0 2540 441" fill="none" xmlns="http://www.w3.org/2000/svg">
<rect width="2540" height="441" fill="white"/>
<path d="M185.303 138.053H214.774C241.694 138.053 253.313 146.554 253.313 163.84C253.313 178.858 241.411 189.06 217.891 189.06H185.587V138.053H185.303ZM149.882 307.226H221.858C259.547 307.226 297.519 293.624 297.519 250.268C297.519 224.481 279.383 204.929 254.446 202.095V201.528C275.132 195.294 289.017 180.275 289.017 157.889C289.017 121.617 258.13 107.732 227.809 107.732H149.882V307.226ZM185.303 219.381H219.308C248.212 219.381 261.53 226.748 261.53 247.718C261.53 274.071 236.027 277.189 217.891 277.189H185.303V219.381Z" fill="black"/>
<path d="M320.477 102.914H354.198V307.225H320.477V102.914Z" fill="black"/>
<path d="M410.865 239.499C410.865 218.246 425.884 198.977 450.537 198.977C475.474 198.977 490.209 218.529 490.209 239.499C490.209 260.752 475.19 280.021 450.537 280.021C425.884 280.304 410.865 260.752 410.865 239.499ZM377.144 239.499C377.144 282.004 409.731 310.625 450.82 310.625C491.626 310.625 524.497 282.004 524.497 239.499C524.497 196.993 491.909 168.372 450.82 168.372C409.731 168.656 377.144 196.993 377.144 239.499Z" fill="black"/>
<path d="M573.523 239.499C573.523 218.246 588.542 198.977 613.195 198.977C638.132 198.977 652.867 218.529 652.867 239.499C652.867 260.752 637.849 280.021 613.195 280.021C588.259 280.304 573.523 260.752 573.523 239.499ZM539.52 239.499C539.52 282.004 572.106 310.625 613.195 310.625C654.001 310.625 686.872 282.004 686.872 239.499C686.872 196.993 654.284 168.372 613.195 168.372C572.39 168.656 539.52 196.993 539.52 239.499Z" fill="black"/>
<path d="M707.548 172.053H739.569V193.306H740.136C746.087 180.555 759.122 168.653 781.508 168.653C802.478 168.653 816.646 176.871 823.731 193.873C833.649 176.587 848.1 168.653 868.22 168.653C904.208 168.653 916.96 194.44 916.96 226.744V307.505H883.239V230.711C883.239 213.709 878.138 199.257 858.019 199.257C836.766 199.257 828.831 216.826 828.831 234.112V307.505H795.11V226.744C795.11 210.025 788.309 198.974 771.873 198.974C749.487 198.974 740.986 215.409 740.986 233.262V307.222H707.265V172.053H707.548Z" fill="black"/>
<path d="M1056.96 239.5C1056.96 260.752 1041.94 280.022 1017.28 280.022C992.347 280.022 977.611 260.469 977.611 239.5C977.611 218.247 992.63 198.977 1017.28 198.977C1041.94 198.977 1056.96 218.53 1056.96 239.5ZM944.74 307.225H976.761V286.823H977.328C987.246 303.258 1005.1 310.626 1023.8 310.626C1065.46 310.626 1090.68 279.738 1090.68 239.5C1090.68 199.544 1063.76 168.373 1025.22 168.373C999.714 168.373 986.396 180.275 979.312 189.059H978.462V102.914H944.74V307.225Z" fill="black"/>
<path d="M1139.98 226.18C1142.53 206.627 1155 194.159 1174.84 194.159C1196.09 194.159 1208.84 206.627 1209.12 226.18H1139.98ZM1243.13 251.4V242.049C1243.13 195.009 1217.34 168.372 1179.65 168.372C1138.85 168.372 1105.98 196.993 1105.98 239.499C1105.98 282.004 1138.56 310.625 1179.65 310.625C1201.19 310.625 1221.03 302.974 1236.89 283.421L1212.52 265.002C1204.02 275.487 1192.97 283.421 1176.25 283.421C1157.27 283.421 1142.25 271.236 1139.98 251.4H1243.13Z" fill="black"/>
<path d="M1265.24 172.053H1298.96V193.59H1299.53C1306.89 178.004 1321.91 168.653 1339.48 168.653C1343.73 168.653 1347.7 169.503 1351.67 170.637V203.224C1346 201.808 1340.62 200.674 1335.23 200.674C1303.49 200.674 1298.96 227.594 1298.96 234.679V307.222H1265.24V172.053Z" fill="black"/>
<path d="M1427.6 198.974C1452.26 198.974 1467.56 215.409 1467.56 238.646C1467.56 261.316 1452.26 278.318 1427.32 278.318C1404.37 278.318 1387.65 260.465 1387.65 239.213C1387.65 215.409 1403.8 198.974 1427.6 198.974ZM1467.56 172.053V192.456H1466.99C1457.08 176.021 1439.22 168.653 1420.52 168.653C1378.86 168.653 1353.64 199.824 1353.64 239.779C1353.64 278.035 1380.56 309.205 1421.09 309.205C1438.09 309.205 1455.37 302.688 1465.29 289.369H1465.86V299.287C1465.86 326.208 1455.66 344.627 1423.07 344.627C1404.08 344.627 1390.2 337.543 1376.6 325.074L1356.19 352.845C1375.46 369.847 1398.13 375.231 1423.35 375.231C1476.06 375.231 1499.86 344.344 1499.86 295.32V172.053H1467.56Z" fill="black"/>
<path d="M1579 206.97C1579 191.047 1581.62 176.716 1586.87 163.977C1592.3 151.051 1599.7 140.092 1609.07 131.1C1618.62 122.108 1629.86 115.177 1642.79 110.306C1655.9 105.435 1670.14 103 1685.5 103C1701.05 103 1715.38 105.435 1728.49 110.306C1741.61 115.177 1752.94 122.108 1762.49 131.1C1772.05 140.092 1779.45 151.051 1784.69 163.977C1790.12 176.716 1792.84 191.047 1792.84 206.97C1792.84 222.519 1790.12 236.756 1784.69 249.682C1779.45 262.421 1772.05 273.473 1762.49 282.84C1752.94 292.019 1741.61 299.232 1728.49 304.477C1715.38 309.535 1701.05 312.064 1685.5 312.064C1670.14 312.064 1655.9 309.535 1642.79 304.477C1629.86 299.232 1618.62 292.019 1609.07 282.84C1599.7 273.473 1592.3 262.421 1586.87 249.682C1581.62 236.756 1579 222.519 1579 206.97ZM1617.5 206.97C1617.5 217.648 1619.09 227.483 1622.27 236.475C1625.65 245.28 1630.33 252.96 1636.32 259.517C1642.51 266.074 1649.72 271.225 1657.96 274.972C1666.39 278.531 1675.66 280.311 1685.78 280.311C1695.9 280.311 1705.17 278.531 1713.6 274.972C1722.03 271.225 1729.24 266.074 1735.24 259.517C1741.42 252.96 1746.1 245.28 1749.29 236.475C1752.66 227.483 1754.34 217.648 1754.34 206.97C1754.34 196.667 1752.66 187.113 1749.29 178.308C1746.1 169.503 1741.51 161.823 1735.52 155.266C1729.52 148.709 1722.31 143.558 1713.88 139.811C1705.45 136.064 1696.08 134.191 1685.78 134.191C1675.48 134.191 1666.11 136.064 1657.68 139.811C1649.44 143.558 1642.32 148.709 1636.32 155.266C1630.33 161.823 1625.65 169.503 1622.27 178.308C1619.09 187.113 1617.5 196.667 1617.5 206.97Z" fill="#0068FF"/>
<path d="M1846.41 172.126V190.953H1847.25C1848.94 188.33 1851.09 185.708 1853.71 183.085C1856.52 180.275 1859.9 177.84 1863.83 175.779C1867.76 173.531 1872.17 171.751 1877.04 170.44C1882.1 168.941 1887.72 168.192 1893.9 168.192C1903.45 168.192 1912.26 170.065 1920.31 173.812C1928.37 177.371 1935.3 182.336 1941.11 188.705C1946.91 195.074 1951.41 202.568 1954.59 211.185C1957.78 219.802 1959.37 229.075 1959.37 239.004C1959.37 248.933 1957.78 258.299 1954.59 267.104C1951.6 275.721 1947.19 283.308 1941.39 289.865C1935.77 296.234 1928.84 301.386 1920.59 305.32C1912.54 309.067 1903.36 310.94 1893.05 310.94C1883.5 310.94 1874.7 308.973 1866.64 305.039C1858.77 301.105 1852.68 295.766 1848.38 289.022H1847.81V374.446H1814.09V172.126H1846.41ZM1925.09 239.004C1925.09 233.759 1924.25 228.607 1922.56 223.549C1921.06 218.304 1918.72 213.62 1915.53 209.499C1912.35 205.378 1908.32 202.099 1903.45 199.664C1898.58 197.041 1892.87 195.73 1886.31 195.73C1880.13 195.73 1874.6 197.041 1869.73 199.664C1864.86 202.287 1860.65 205.659 1857.09 209.78C1853.71 213.901 1851.09 218.585 1849.22 223.83C1847.53 229.075 1846.69 234.321 1846.69 239.566C1846.69 244.811 1847.53 250.057 1849.22 255.302C1851.09 260.36 1853.71 264.95 1857.09 269.071C1860.65 273.192 1864.86 276.564 1869.73 279.187C1874.6 281.622 1880.13 282.84 1886.31 282.84C1892.87 282.84 1898.58 281.529 1903.45 278.906C1908.32 276.283 1912.35 272.911 1915.53 268.79C1918.72 264.669 1921.06 259.985 1922.56 254.74C1924.25 249.495 1925.09 244.249 1925.09 239.004Z" fill="#0068FF"/>
<path d="M1981.24 172.126H2014.96V307.006H1981.24V172.126ZM1976.46 126.323C1976.46 120.89 1978.43 116.207 1982.36 112.273C1986.48 108.152 1991.63 106.091 1997.82 106.091C2004 106.091 2009.15 108.058 2013.27 111.992C2017.58 115.739 2019.73 120.516 2019.73 126.323C2019.73 132.13 2017.58 137.001 2013.27 140.935C2009.15 144.682 2004 146.555 1997.82 146.555C1991.63 146.555 1986.48 144.588 1982.36 140.654C1978.43 136.533 1976.46 131.756 1976.46 126.323Z" fill="#0068FF"/>
<path d="M2041.81 172.126H2073.85V193.763H2074.41C2077.41 187.019 2082.56 181.118 2089.86 176.06C2097.36 170.815 2106.16 168.192 2116.28 168.192C2125.08 168.192 2132.58 169.784 2138.76 172.969C2145.13 175.966 2150.28 179.994 2154.21 185.052C2158.33 190.11 2161.33 195.917 2163.21 202.474C2165.08 209.031 2166.02 215.775 2166.02 222.706V307.006H2132.3V232.26C2132.3 228.326 2132.01 224.205 2131.45 219.896C2130.89 215.587 2129.67 211.747 2127.8 208.375C2125.93 204.816 2123.3 201.912 2119.93 199.664C2116.75 197.416 2112.44 196.292 2107.01 196.292C2101.57 196.292 2096.89 197.416 2092.96 199.664C2089.02 201.725 2085.74 204.441 2083.12 207.813C2080.69 211.185 2078.81 215.119 2077.5 219.615C2076.19 223.924 2075.53 228.326 2075.53 232.822V307.006H2041.81V172.126Z" fill="#0068FF"/>
<path d="M2191.88 172.126H2225.6V307.006H2191.88V172.126ZM2187.1 126.323C2187.1 120.89 2189.07 116.207 2193 112.273C2197.12 108.152 2202.27 106.091 2208.46 106.091C2214.64 106.091 2219.79 108.058 2223.91 111.992C2228.22 115.739 2230.37 120.516 2230.37 126.323C2230.37 132.13 2228.22 137.001 2223.91 140.935C2219.79 144.682 2214.64 146.555 2208.46 146.555C2202.27 146.555 2197.12 144.588 2193 140.654C2189.07 136.533 2187.1 131.756 2187.1 126.323Z" fill="#0068FF"/>
<path d="M2247.4 239.004C2247.4 228.326 2249.27 218.678 2253.02 210.061C2256.95 201.256 2262.2 193.763 2268.75 187.581C2275.31 181.399 2283.08 176.622 2292.07 173.25C2301.07 169.878 2310.62 168.192 2320.74 168.192C2330.85 168.192 2340.41 169.878 2349.4 173.25C2358.39 176.622 2366.17 181.399 2372.72 187.581C2379.28 193.763 2384.43 201.256 2388.18 210.061C2392.11 218.678 2394.08 228.326 2394.08 239.004C2394.08 249.682 2392.11 259.423 2388.18 268.228C2384.43 277.033 2379.28 284.62 2372.72 290.989C2366.17 297.171 2358.39 302.042 2349.4 305.601C2340.41 309.16 2330.85 310.94 2320.74 310.94C2310.62 310.94 2301.07 309.16 2292.07 305.601C2283.08 302.042 2275.31 297.171 2268.75 290.989C2262.2 284.62 2256.95 277.033 2253.02 268.228C2249.27 259.423 2247.4 249.682 2247.4 239.004ZM2281.68 239.004C2281.68 244.249 2282.43 249.495 2283.93 254.74C2285.61 259.985 2288.05 264.669 2291.23 268.79C2294.42 272.911 2298.44 276.283 2303.31 278.906C2308.19 281.529 2313.99 282.84 2320.74 282.84C2327.48 282.84 2333.29 281.529 2338.16 278.906C2343.03 276.283 2347.06 272.911 2350.24 268.79C2353.43 264.669 2355.77 259.985 2357.27 254.74C2358.95 249.495 2359.8 244.249 2359.8 239.004C2359.8 233.759 2358.95 228.607 2357.27 223.549C2355.77 218.304 2353.43 213.62 2350.24 209.499C2347.06 205.378 2343.03 202.099 2338.16 199.664C2333.29 197.041 2327.48 195.73 2320.74 195.73C2313.99 195.73 2308.19 197.041 2303.31 199.664C2298.44 202.099 2294.42 205.378 2291.23 209.499C2288.05 213.62 2285.61 218.304 2283.93 223.549C2282.43 228.607 2281.68 233.759 2281.68 239.004Z" fill="#0068FF"/>
<path d="M2415.53 172.126H2447.57V193.763H2448.13C2451.13 187.019 2456.28 181.118 2463.58 176.06C2471.08 170.815 2479.88 168.192 2490 168.192C2498.8 168.192 2506.3 169.784 2512.48 172.969C2518.85 175.966 2524 179.994 2527.93 185.052C2532.05 190.11 2535.05 195.917 2536.92 202.474C2538.8 209.031 2539.73 215.775 2539.73 222.706V307.006H2506.01V232.26C2506.01 228.326 2505.73 224.205 2505.17 219.896C2504.61 215.587 2503.39 211.747 2501.52 208.375C2499.65 204.816 2497.02 201.912 2493.65 199.664C2490.47 197.416 2486.16 196.292 2480.72 196.292C2475.29 196.292 2470.61 197.416 2466.67 199.664C2462.74 201.725 2459.46 204.441 2456.84 207.813C2454.4 211.185 2452.53 215.119 2451.22 219.615C2449.91 223.924 2449.25 228.326 2449.25 232.822V307.006H2415.53V172.126Z" fill="#0068FF"/>
</svg>
