<svg width="558" height="150" viewBox="0 0 558 150" fill="none" xmlns="http://www.w3.org/2000/svg">
<path d="M54.5 48.3999H64.9C74.4 48.3999 78.5 51.3999 78.5 57.4999C78.5 62.7999 74.3 66.3999 66 66.3999H54.6V48.3999H54.5ZM42 108.1H67.4C80.7 108.1 94.1 103.3 94.1 87.9999C94.1 78.8999 87.7 71.9999 78.9 70.9999V70.7999C86.2 68.5999 91.1 63.2999 91.1 55.3999C91.1 42.5999 80.2 37.7 69.5 37.7H42V108.1ZM54.5 77.0999H66.5C76.7 77.0999 81.4 79.6999 81.4 87.0999C81.4 96.3999 72.4 97.4999 66 97.4999H54.5V77.0999Z" fill="white"/>
<path d="M102.2 36H114.1V108.1H102.2V36Z" fill="white"/>
<path d="M134.1 84.2C134.1 76.7 139.4 69.9 148.1 69.9C156.9 69.9 162.1 76.8 162.1 84.2C162.1 91.7 156.8 98.5 148.1 98.5C139.4 98.6 134.1 91.7 134.1 84.2ZM122.2 84.2C122.2 99.2 133.7 109.3 148.2 109.3C162.6 109.3 174.2 99.2 174.2 84.2C174.2 69.2 162.7 59.1 148.2 59.1C133.7 59.2 122.2 69.2 122.2 84.2Z" fill="white"/>
<path d="M191.5 84.2C191.5 76.7 196.8 69.9 205.5 69.9C214.3 69.9 219.5 76.8 219.5 84.2C219.5 91.7 214.2 98.5 205.5 98.5C196.7 98.6 191.5 91.7 191.5 84.2ZM179.5 84.2C179.5 99.2 191 109.3 205.5 109.3C219.9 109.3 231.5 99.2 231.5 84.2C231.5 69.2 220 59.1 205.5 59.1C191.1 59.2 179.5 69.2 179.5 84.2Z" fill="white"/>
<path d="M238.8 60.3999H250.1V67.8999H250.3C252.4 63.3999 257 59.2 264.9 59.2C272.3 59.2 277.3 62.0999 279.8 68.0999C283.3 61.9999 288.4 59.2 295.5 59.2C308.2 59.2 312.7 68.3 312.7 79.7V108.2H300.8V81.0999C300.8 75.0999 299 69.9999 291.9 69.9999C284.4 69.9999 281.6 76.1999 281.6 82.2999V108.2H269.7V79.7C269.7 73.8 267.3 69.9 261.5 69.9C253.6 69.9 250.6 75.6999 250.6 81.9999V108.1H238.7V60.3999H238.8Z" fill="white"/>
<path d="M362.1 84.2C362.1 91.7 356.8 98.5 348.1 98.5C339.3 98.5 334.1 91.6 334.1 84.2C334.1 76.7 339.4 69.9 348.1 69.9C356.8 69.9 362.1 76.8 362.1 84.2ZM322.5 108.1H333.8V100.9H334C337.5 106.7 343.8 109.3 350.4 109.3C365.1 109.3 374 98.4 374 84.2C374 70.1 364.5 59.1 350.9 59.1C341.9 59.1 337.2 63.3 334.7 66.4H334.4V36H322.5V108.1Z" fill="white"/>
<path d="M391.4 79.5C392.3 72.6 396.7 68.2 403.7 68.2C411.2 68.2 415.7 72.6 415.8 79.5H391.4ZM427.8 88.4V85.0999C427.8 68.4999 418.7 59.1 405.4 59.1C391 59.1 379.4 69.2 379.4 84.2C379.4 99.2 390.9 109.3 405.4 109.3C413 109.3 420 106.6 425.6 99.7L417 93.2C414 96.9 410.1 99.7 404.2 99.7C397.5 99.7 392.2 95.4 391.4 88.4H427.8Z" fill="white"/>
<path d="M435.6 60.3999H447.5V67.9999H447.7C450.3 62.4999 455.6 59.2 461.8 59.2C463.3 59.2 464.7 59.4999 466.1 59.8999V71.4C464.1 70.9 462.2 70.4999 460.3 70.4999C449.1 70.4999 447.5 79.9999 447.5 82.4999V108.1H435.6V60.3999Z" fill="white"/>
<path d="M492.9 69.9C501.6 69.9 507 75.7 507 83.9C507 91.9 501.6 97.9 492.8 97.9C484.7 97.9 478.8 91.5999 478.8 84.0999C478.8 75.6999 484.5 69.9 492.9 69.9ZM507 60.3999V67.5999H506.8C503.3 61.7999 497 59.2 490.4 59.2C475.7 59.2 466.8 70.1999 466.8 84.2999C466.8 97.7999 476.3 108.8 490.6 108.8C496.6 108.8 502.7 106.5 506.2 101.8H506.4V105.3C506.4 114.8 502.8 121.3 491.3 121.3C484.6 121.3 479.7 118.8 474.9 114.4L467.7 124.2C474.5 130.2 482.5 132.1 491.4 132.1C510 132.1 518.4 121.2 518.4 103.9V60.3999H507Z" fill="white"/>
</svg>
